<svg xmlns="http://www.w3.org/2000/svg" xml:space="preserve" width="220" height="60" data-id="lg_bEhDXTyXnhUB4bcmqB" data-version="1" viewBox="200 720 1500 100"><path fill="#fff" stroke="transparent" d="M0 0h2000v1500H0z"/><g data-padding="20"><g transform="translate(-1656.53 -1256.426)scale(2.58736)"><path fill="#56ccf2" d="M861.506 810.34a5.82 5.82 0 0 1-5.897.946q-1.365-.564-2.275-1.638a44.6 44.6 0 0 1-24.17 16.016c5.46-3.786 9.956-10.32 12.96-18.582h9.936l-.146-.51-.51-3.93h-7.843c1.528-5.46 2.438-11.485 2.62-17.91h2.858l-.583-4.44h-2.275a80 80 0 0 0-.728-8.664q-2.147.6-4.35 1.165.492 3.64.638 7.498h-15.67l-.91 4.441h16.561a69.2 69.2 0 0 1-2.784 17.91h-18.746v-9.829l-2.276 1.583q-1 .674-2.166.892v7.353h-18.745a64 64 0 0 1-1.893-8.372l-1.456.582-2.73 1.22q.6 3.403 1.456 6.552h-14.196q-1.929 1.164-3.64 2.366-1.328.928-2.475 1.856a52.05 52.05 0 0 0 45.9 27.646 51.87 51.87 0 0 0 44.135-24.66Zm-80.79-3.258h13.104c3.003 8.262 7.498 14.796 12.94 18.564a44.6 44.6 0 0 1-26.026-18.564m35.017 17.635c-7.062-1.183-13.23-7.88-17.144-17.635h17.144Zm4.46-17.635h17.143c-3.913 9.755-10.082 16.452-17.144 17.635Z"/><path fill="#56ccf2" d="M901.291 735.883c-7.28-4.786-22.459-1.4-39.33 5.096l-29.63-28.938-9.99.346 23.822 35.308a471 471 0 0 0-28.028 14.16l-12.285-9.282-5.096.6 12.686 15.998 1.092 20.384 4.222-2.93 3.04-15.106a470 470 0 0 0 30.394-7.954l5.532 42.224 7.717-6.35 3.003-41.315c16.963-6.298 30.576-13.832 32.851-22.24"/><path fill="#56ccf2" d="m830.64 735.173-2.458-3.64a52.05 52.05 0 0 0-61.516 43.025 158 158 0 0 1 9.136-6.37q1.001-3.003 2.366-5.824h7.17q3.86-2.22 8.01-4.44h-12.614a44.6 44.6 0 0 1 26.044-18.565 30.9 30.9 0 0 0-7.79 8.245q.547-.182 1.093-.273l5.096-.6h.11c3.093-3.495 6.624-5.788 10.464-6.425v12.376l2.93 2.202 1.51-.783v-13.795c4.332.728 8.3 3.512 11.65 7.79l5.77-2.73Z"/><path fill="#56ccf2" d="m807.688 771.355-8.008-10.083a244 244 0 0 0-17.836 10.047 131 131 0 0 0-21.366 16.143 56.4 56.4 0 0 0-9.282 11.393 32.8 32.8 0 0 0-3.222 7.262q-.273.983-.51 2.002l-.18 1.02-.183 1.237v1.53l.036 2.22c.182 2.693.91 5.55 2.33 8.043a15.47 15.47 0 0 0 5.587 5.697 24.4 24.4 0 0 0 11.648 3.094c6.843.2 12.121-.91 15.816-1.638l2.912-.673c-10.684-.546-17.345-3.13-20.93-5.06a14.6 14.6 0 0 1-3.367-2.257h.073q-.364-.31-.656-.637c-1.62-1.929-1.656-3.676-1.092-6.188l.255-.728.437-1.456.018-.054-.036.182.036-.037.037-.127.072-.219.182-.436q.182-.455.4-.892.91-1.82 2.458-3.64a42 42 0 0 1 7.862-6.934 113 113 0 0 1 20.184-10.72c5.97-2.548 11.74-4.587 16.962-6.316Z"/><rect width="520.587" height="136.73" x="685.119" y="832.744" fill="none" rx="0" ry="0" transform="matrix(.79 0 0 .79 353.86 73.02)"/><path fill="#56ccf2" d="M925.196 746.976h18.82v44.83q0 11.43-6.2 17.48-6.19 6.04-17.04 6.04-11.52 0-18.38-6.43-6.87-6.43-6.87-18.53h18.63q.09 7.97 5.85 7.97 5.19 0 5.19-6.53Zm55.12 68.35q-8.07 0-14.45-3.36-6.39-3.36-10.03-9.6-3.65-6.24-3.65-14.69 0-8.35 3.69-14.59 3.7-6.24 10.08-9.6 6.39-3.36 14.45-3.36 8.07 0 14.45 3.36 6.39 3.36 10.08 9.6 3.7 6.24 3.7 14.59 0 8.36-3.7 14.64-3.69 6.29-10.13 9.65-6.43 3.36-14.49 3.36m0-16.32q3.93 0 6.57-2.93 2.64-2.92 2.64-8.4 0-5.47-2.64-8.35t-6.48-2.88-6.43 2.88-2.59 8.35q0 5.57 2.49 8.45 2.5 2.88 6.44 2.88m72.19-38.21h18.91v53.86h-18.91v-7.68q-2.4 3.65-6.63 5.91-4.22 2.25-9.7 2.25-9.4 0-14.83-6.19-5.42-6.19-5.42-16.85v-31.3h18.72v28.9q0 4.61 2.45 7.25t6.48 2.64q4.13 0 6.53-2.64t2.4-7.25Zm48.49 9.51q3.17-4.61 7.68-7.3t9.7-2.69v20.07h-5.28q-6.15 0-9.12 2.4-2.98 2.4-2.98 8.35v23.52h-18.82v-53.86h18.82Zm59.32-9.99q9.32 0 14.79 6.19 5.47 6.2 5.47 16.76v31.39h-18.82v-28.9q0-4.61-2.4-7.25t-6.43-2.64q-4.22 0-6.62 2.64t-2.4 7.25v28.9h-18.82v-53.86h18.82v7.68q2.49-3.65 6.72-5.9 4.22-2.26 9.69-2.26m77.1 54.34-3.65-11.04h-24l-3.65 11.04h-19.78l24.68-67.68h21.7l24.57 67.68Zm-22.85-25.44h14.5l-7.3-21.89Zm48.88-42.24h18.82v67.68h-18.82Z"/></g><path fill="transparent" stroke="transparent" stroke-width="2.683" d="M250 579.606h1500v340.788H250z"/></g></svg>